<svg width="450" height="450" viewBox="0 0 450 450" fill="none" xmlns="http://www.w3.org/2000/svg">
<rect width="450" height="450" rx="100" fill="url(#paint0_linear_223_1019)"/>
<path d="M229.393 86.8C230.08 87.0595 230.08 87.0595 230.78 87.3243C231.285 87.5207 231.79 87.7172 232.31 87.9196C233.482 88.3642 234.655 88.8042 235.828 89.2448C236.152 89.3669 236.475 89.489 236.809 89.6148C241.041 91.2082 245.303 92.7212 249.562 94.2421C252.071 95.1385 254.58 96.0374 257.089 96.936C257.593 97.1165 258.098 97.2971 258.617 97.4832C300.936 112.636 300.936 112.636 321.378 120.194C323.148 120.847 324.92 121.492 326.693 122.137C328.42 122.768 330.146 123.402 331.872 124.036C332.722 124.348 333.573 124.658 334.424 124.967C335.613 125.398 336.799 125.835 337.986 126.273C338.342 126.401 338.699 126.529 339.066 126.661C341.221 127.464 343.141 128.274 344.49 130.244C345.047 131.736 344.996 133.191 344.989 134.762C344.99 135.116 344.992 135.47 344.994 135.835C344.998 137.023 344.996 138.211 344.995 139.4C344.997 140.251 344.999 141.103 345.001 141.955C345.007 144.273 345.008 146.591 345.006 148.909C345.006 150.851 345.008 152.792 345.01 154.734C345.015 159.325 345.015 163.917 345.013 168.509C345.01 173.22 345.015 177.932 345.025 182.644C345.032 186.703 345.035 190.762 345.033 194.821C345.033 197.239 345.034 199.656 345.04 202.074C345.085 221.658 345.085 221.658 343.57 230.876C343.515 231.218 343.46 231.56 343.403 231.912C343.095 233.797 342.741 235.667 342.347 237.536C342.235 238.081 342.122 238.626 342.006 239.188C337.452 260.739 327.776 281.115 313.995 298.29C313.81 298.524 313.624 298.757 313.433 298.998C311.435 301.511 309.349 303.931 307.182 306.301C306.641 306.899 306.102 307.5 305.58 308.115C303.18 310.934 300.568 313.538 297.952 316.154C297.147 316.959 296.346 317.769 295.545 318.578C292.864 321.271 290.168 323.83 287.177 326.179C286.147 327.006 285.188 327.881 284.23 328.79C280.754 331.951 276.901 334.664 273.112 337.434C272.631 337.787 272.631 337.787 272.14 338.147C259.747 347.204 246.171 354.549 232.228 360.92C231.76 361.136 231.291 361.353 230.808 361.575C230.357 361.775 229.905 361.975 229.44 362.181C229.044 362.357 228.649 362.534 228.241 362.716C225.558 363.54 223.601 363.103 221.119 361.916C220.857 361.792 220.596 361.669 220.326 361.542C219.479 361.141 218.637 360.732 217.794 360.322C217.204 360.04 216.614 359.758 216.024 359.476C214.575 358.783 213.131 358.083 211.688 357.38C210.625 356.864 209.558 356.356 208.492 355.847C193.136 348.43 178.752 338.794 165.684 327.865C165.455 327.674 165.226 327.482 164.99 327.285C159.56 322.73 154.397 317.913 149.374 312.915C148.952 312.496 148.952 312.496 148.522 312.069C146.616 310.157 144.828 308.165 143.068 306.119C142.655 305.648 142.241 305.177 141.827 304.707C134.464 296.267 128.111 287.176 122.626 277.413C122.45 277.104 122.274 276.795 122.093 276.476C113.227 260.757 108.135 243.097 106.098 225.222C106.065 224.934 106.031 224.647 105.996 224.351C105.357 218.815 105.099 213.361 105.102 207.792C105.1 206.959 105.097 206.126 105.093 205.294C105.086 203.063 105.084 200.832 105.083 198.601C105.083 197.205 105.081 195.808 105.078 194.412C105.07 189.533 105.067 184.654 105.067 179.775C105.068 175.235 105.059 170.695 105.045 166.155C105.034 162.243 105.029 158.332 105.03 154.421C105.03 152.09 105.027 149.759 105.018 147.428C105.01 145.243 105.01 143.057 105.016 140.872C105.017 140.071 105.015 139.269 105.01 138.468C105.003 137.374 105.007 136.281 105.014 135.187C105.009 134.87 105.005 134.554 105 134.228C105.03 132.032 105.599 130.799 106.968 129.102C109.306 127.127 112.195 126.325 115.05 125.325C115.602 125.129 116.154 124.933 116.706 124.736C117.887 124.315 119.069 123.896 120.251 123.479C123.103 122.473 125.95 121.456 128.798 120.439C129.775 120.091 130.752 119.743 131.729 119.395C137.772 117.239 143.792 115.022 149.809 112.792C158.853 109.443 167.919 106.16 176.999 102.91C186.91 99.3615 196.798 95.7548 206.668 92.0948C208.961 91.2444 211.257 90.3989 213.554 89.5576C214.403 89.2457 215.252 88.9318 216.099 88.616C217.285 88.1747 218.474 87.7405 219.663 87.308C220.006 87.1786 220.349 87.0492 220.702 86.9159C223.728 85.8305 226.32 85.6099 229.393 86.8ZM220.964 102.437C220.618 102.564 220.271 102.691 219.914 102.822C218.744 103.252 217.576 103.686 216.408 104.121C215.565 104.431 214.721 104.741 213.878 105.051C212.019 105.734 210.162 106.419 208.304 107.105C205.104 108.285 201.899 109.456 198.694 110.624C198.414 110.727 198.134 110.829 197.845 110.934C196.697 111.353 195.549 111.771 194.402 112.189C191.17 113.368 187.94 114.548 184.709 115.728C183.546 116.153 182.383 116.577 181.22 117.002C180.938 117.106 180.655 117.209 180.363 117.315C178.005 118.177 175.646 119.038 173.287 119.899C162.659 123.779 152.033 127.668 141.415 131.575C137.422 133.044 133.427 134.508 129.427 135.956C129.082 136.08 128.738 136.205 128.383 136.334C126.801 136.906 125.22 137.477 123.637 138.045C123.102 138.239 122.566 138.432 122.014 138.632C121.319 138.881 121.319 138.881 120.61 139.136C119.616 139.448 119.616 139.448 119.146 139.975C119.101 140.939 119.088 141.904 119.085 142.868C119.084 143.174 119.083 143.481 119.081 143.796C119.078 144.83 119.077 145.864 119.076 146.898C119.074 147.637 119.072 148.376 119.07 149.115C119.064 151.131 119.061 153.147 119.059 155.163C119.058 156.428 119.056 157.692 119.054 158.956C119.048 162.923 119.044 166.891 119.042 170.858C119.041 175.413 119.033 179.968 119.02 184.523C119.011 188.055 119.007 191.587 119.006 195.119C119.005 197.222 119.003 199.324 118.995 201.427C118.955 212.798 119.051 224.132 121.62 235.28C121.786 236.023 121.786 236.023 121.956 236.781C126.73 257.456 136.222 276.908 150.026 293.071C150.391 293.508 150.756 293.944 151.131 294.394C154.182 298.029 157.399 301.45 160.765 304.793C161.583 305.606 162.397 306.424 163.209 307.243C165.894 309.931 168.603 312.481 171.583 314.842C172.561 315.622 173.499 316.429 174.432 317.262C176.256 318.873 178.17 320.347 180.118 321.803C180.492 322.083 180.866 322.363 181.252 322.651C187.412 327.216 193.822 331.451 200.478 335.259C200.767 335.425 201.057 335.59 201.354 335.761C206.926 338.932 212.598 341.918 218.311 344.828C218.655 345.004 219 345.18 219.355 345.362C220.254 345.817 221.156 346.262 222.062 346.703C222.797 347.064 222.797 347.064 223.547 347.432C226.001 348.271 227.953 347.073 230.169 345.991C230.475 345.844 230.78 345.697 231.095 345.546C232.09 345.065 233.084 344.58 234.077 344.094C234.417 343.928 234.757 343.762 235.108 343.591C249.853 336.388 263.55 327.953 276.156 317.427C276.409 317.217 276.662 317.008 276.922 316.792C284.256 310.704 291.629 304.239 297.519 296.713C298.288 295.743 299.097 294.846 299.942 293.941C317.014 274.865 327.038 249.456 330.523 224.352C330.597 223.842 330.671 223.333 330.748 222.808C331.118 219.411 331.014 215.98 331.007 212.567C331.007 211.769 331.007 210.972 331.007 210.174C331.007 208.018 331.005 205.862 331.002 203.705C330.999 201.448 330.999 199.191 330.998 196.935C330.997 192.665 330.993 188.395 330.989 184.125C330.984 179.263 330.982 174.4 330.979 169.538C330.975 159.539 330.967 149.54 330.958 139.54C330.138 139.196 329.317 138.852 328.497 138.509C328.04 138.317 327.583 138.126 327.113 137.928C325.073 137.094 323.006 136.347 320.93 135.609C320.491 135.452 320.051 135.294 319.598 135.132C318.666 134.797 317.733 134.464 316.8 134.13C314.34 133.252 311.882 132.37 309.423 131.487C308.701 131.229 308.701 131.229 307.965 130.964C304.506 129.724 301.052 128.47 297.604 127.199C291.53 124.963 285.447 122.751 279.364 120.539C278.314 120.158 277.265 119.776 276.215 119.395C271.87 117.815 267.524 116.236 263.178 114.658C261.599 114.085 260.02 113.512 258.441 112.938C257.298 112.523 256.154 112.108 255.011 111.694C250.68 110.122 246.358 108.53 242.04 106.924C240.564 106.377 239.089 105.83 237.613 105.282C236.197 104.756 234.783 104.226 233.369 103.696C232.504 103.375 231.64 103.055 230.776 102.734C230.382 102.585 229.987 102.436 229.581 102.283C229.216 102.148 228.85 102.013 228.474 101.875C228.158 101.757 227.842 101.639 227.516 101.517C225.119 100.88 223.211 101.592 220.964 102.437Z" fill="white"/>
<path d="M212.49 133.183C216.525 126.23 224.492 123.59 231.967 126.732C235.961 128.957 238.551 132.139 239.889 136.495C240.439 139.345 240.043 142.352 239.622 145.195C248.495 151.965 257.093 152.91 267.892 152.588C268.103 152.19 268.103 152.19 268.318 151.783C268.507 151.433 268.696 151.082 268.89 150.721C269.075 150.375 269.26 150.028 269.451 149.671C271.216 146.817 274.415 144.855 277.643 144.068C281.94 143.386 286.124 143.84 289.748 146.364C292.408 148.541 294.585 151.349 295.294 154.763C295.635 158.184 295.181 161.121 293.988 164.332C294.273 164.559 294.558 164.786 294.851 165.02C298.014 167.571 301.049 170.231 303.992 173.031C304.41 173.427 304.411 173.427 304.838 173.832C313.38 181.974 320.059 192.032 320.59 204.215C320.598 204.814 320.603 205.412 320.607 206.01C320.61 206.333 320.614 206.657 320.617 206.99C320.624 208.029 320.627 209.069 320.628 210.108C320.628 210.46 320.63 210.812 320.631 211.174C320.632 221.483 320.632 221.484 319.215 226.092C317.731 226.834 316.035 226.599 314.402 226.604C313.993 226.607 313.584 226.61 313.163 226.613C311.805 226.621 310.447 226.626 309.089 226.63C308.393 226.633 308.392 226.634 307.682 226.636C305.224 226.645 302.766 226.651 300.307 226.655C297.773 226.66 295.24 226.675 292.706 226.692C290.754 226.703 288.801 226.707 286.849 226.709C285.916 226.711 284.982 226.716 284.049 226.724C282.737 226.735 281.426 226.734 280.114 226.731C279.542 226.739 279.542 226.739 278.958 226.748C274.759 226.713 270.912 225.112 267.892 222.177C262.936 216.05 262.316 214.951 261.364 212.878L260.923 211.913C260.438 214.426 259.705 217.516 258.987 219.972C258.768 220.735 258.55 221.498 258.331 222.26C258.215 222.662 258.099 223.063 257.979 223.477C256.116 229.942 254.308 236.42 252.595 242.926C252.442 243.509 252.287 244.093 252.134 244.676C251.385 247.516 250.643 250.356 249.907 253.199C248.705 257.803 247.487 262.391 245.884 266.876C245.774 267.193 245.663 267.511 245.55 267.838C244.332 271.081 242.365 274.118 239.187 275.674C237.325 275.94 236.423 275.822 234.757 274.94C230.704 271.608 229.592 266.708 228.382 261.828C228.268 261.371 228.155 260.914 228.038 260.443C226.9 255.781 225.966 251.085 225.066 246.372C224.562 243.731 224.046 241.092 223.533 238.454C223.374 237.633 223.374 237.633 223.212 236.795C218.764 213.887 219.169 210.137 211.787 185.643C211.624 186.224 211.624 186.224 211.459 186.817C202.223 219.842 202.222 219.842 199.201 229.68C199.106 229.992 199.011 230.304 198.914 230.626C197.875 234.032 196.716 237.382 195.448 240.71C195.326 241.035 195.204 241.36 195.078 241.695C194.059 244.311 192.866 246.584 190.666 248.41C190.414 248.623 190.161 248.836 189.902 249.056C188.289 250.205 186.734 250.201 184.821 250.013C180.363 248.094 178.345 244.297 176.449 240.064C173.497 233.081 173.497 233.081 169.164 226.961C168.004 226.912 166.854 226.89 165.694 226.886C165.149 226.882 165.149 226.882 164.593 226.877C163.801 226.871 163.008 226.866 162.217 226.862C160.965 226.855 159.713 226.845 158.462 226.834C154.902 226.803 151.342 226.777 147.782 226.754C145.607 226.741 143.432 226.722 141.258 226.702C140.427 226.695 139.596 226.69 138.765 226.686C137.605 226.681 136.445 226.67 135.285 226.659C134.939 226.658 134.592 226.658 134.236 226.658C131.859 226.626 131.858 226.626 130.889 225.657C130.671 224.771 130.671 224.771 130.519 223.674C130.463 223.268 130.406 222.862 130.348 222.444C128.672 209.028 130.091 196.362 138.384 185.209C139.34 184.024 140.321 182.871 141.328 181.729C141.665 181.344 142.002 180.959 142.349 180.563C143.163 179.642 143.982 178.726 144.807 177.815C144.687 177.558 144.566 177.3 144.442 177.035C142.828 173.514 141.888 170.095 142.945 166.235C144.673 161.665 147.069 159.066 151.452 156.878C155.064 155.733 159.498 156.003 162.911 157.59C166.474 159.685 168.493 162.225 169.746 166.164C170.727 170.311 169.835 173.993 167.623 177.606C165.34 180.755 162.595 182.759 158.725 183.468C154.354 183.69 154.353 183.69 152.363 183.169C151.323 182.928 151.322 182.929 150.48 183.504C143.042 190.442 138.01 199.726 137.617 209.985C137.603 210.429 137.591 210.874 137.577 211.332C137.56 211.791 137.543 212.251 137.526 212.724C137.486 213.846 137.448 214.967 137.414 216.088C138.023 216.084 138.023 216.084 138.645 216.08C142.484 216.053 146.324 216.034 150.163 216.021C152.136 216.014 154.11 216.005 156.084 215.99C157.99 215.976 159.896 215.968 161.802 215.964C162.528 215.962 163.254 215.958 163.979 215.951C164.999 215.941 166.019 215.939 167.039 215.94C167.335 215.935 167.632 215.931 167.937 215.926C171.359 215.948 174.101 217.157 176.558 219.505C179.465 222.623 181.253 226.985 183.244 230.713C183.525 231.238 183.807 231.763 184.089 232.288C184.769 233.556 185.448 234.826 186.126 236.095C188.747 228.783 190.942 221.366 193.03 213.886C193.16 213.42 193.29 212.954 193.425 212.473C195.135 206.33 196.773 200.171 198.361 193.996C199.782 188.477 201.237 182.988 203.007 177.57C203.153 177.113 203.299 176.655 203.45 176.184C204.591 172.823 206.314 168.665 209.612 166.941C211.736 166.602 213.414 166.688 215.375 167.593C228.2 179.252 228.911 210.598 232.053 226.863C233.239 232.991 234.47 239.111 235.708 245.229C235.818 245.777 235.929 246.325 236.043 246.889C236.346 248.384 236.651 249.879 236.958 251.373C237.046 251.808 237.135 252.244 237.226 252.693C237.348 253.279 237.348 253.279 237.471 253.877C237.541 254.215 237.61 254.553 237.681 254.901C237.815 255.673 237.815 255.673 238.317 256.102C238.421 255.707 238.525 255.312 238.632 254.906C239.632 251.102 240.636 247.298 241.642 243.496C242.159 241.543 242.674 239.59 243.187 237.636C245.364 229.357 247.591 221.098 250.011 212.886C250.108 212.554 250.205 212.222 250.304 211.88C254.061 199.052 254.062 199.052 258.302 196.426C259.956 195.787 261.436 196.009 263.108 196.516C267.502 199.132 269.537 204.459 271.698 208.858C272.012 209.491 272.012 209.491 272.332 210.137C272.717 210.915 273.102 211.693 273.485 212.472C273.649 212.804 273.812 213.137 273.981 213.479C274.175 213.961 274.175 213.961 274.373 214.454C274.775 215.268 274.776 215.268 275.532 215.478C277.052 215.73 278.565 215.731 280.102 215.743C280.455 215.747 280.808 215.751 281.171 215.755C282.333 215.769 283.496 215.781 284.658 215.792C285.465 215.8 286.272 215.81 287.079 215.819C289.201 215.843 291.323 215.864 293.445 215.885C295.611 215.907 297.777 215.931 299.943 215.955C304.192 216.001 308.441 216.046 312.69 216.088C312.705 214.279 312.714 212.469 312.722 210.659C312.727 210.15 312.732 209.64 312.736 209.116C312.777 196.996 307.64 187.527 299.262 179.065C296.764 176.582 294.169 174.314 291.379 172.161C291.093 171.918 290.808 171.674 290.514 171.424C289.68 170.712 289.68 170.712 288.335 169.986C287.316 170.099 286.301 170.249 285.29 170.42C280.55 170.788 276.674 170.749 272.676 167.811C270.359 165.734 269.035 163.71 267.892 160.852C267.624 160.859 267.355 160.866 267.078 160.873C261.658 160.992 256.629 160.973 251.365 159.547C250.9 159.431 250.436 159.315 249.957 159.196C244.657 157.74 239.594 155.252 235.322 151.785C234.413 151.18 234.413 151.18 233.289 151.379C232.144 151.721 232.143 151.72 230.788 152.398C227.523 153.632 223.618 153.574 220.301 152.575C216.406 150.795 213.652 148.161 212.004 144.189C210.833 140.448 210.84 136.771 212.49 133.183ZM156.152 163.333C152.371 163.333 149.305 166.398 149.305 170.179C149.305 173.961 152.371 177.027 156.152 177.027C159.934 177.027 162.999 173.961 162.999 170.179C162.999 166.398 159.934 163.333 156.152 163.333ZM281.011 150.444C277.23 150.444 274.164 153.509 274.164 157.291C274.164 161.072 277.23 164.138 281.011 164.138C284.793 164.138 287.858 161.072 287.858 157.291C287.858 153.509 284.793 150.444 281.011 150.444Z" fill="white"/>
<path d="M142.741 243.408C144.38 248.304 146.286 252.858 148.722 257.407C148.925 257.813 149.128 258.221 149.338 258.64C159.774 279.023 178.855 292.548 200.009 299.911C209.782 303.345 218.35 308.332 225.704 315.687C229.314 315.653 232.351 314.289 235.626 312.887C236.19 312.649 236.753 312.412 237.317 312.174C252.111 305.889 266.41 297.527 276.455 284.699C276.696 284.4 276.937 284.102 277.186 283.794C277.798 282.988 278.336 282.245 278.766 281.327C278.59 280.114 278.59 280.113 277.896 279.153C276.314 275.583 276.052 272.508 277.448 268.8C279.223 265.02 282.087 262.672 285.943 261.158C289.732 260.481 293.009 260.78 296.333 262.833C299.537 265.156 301.481 267.834 302.252 271.759C302.59 275.138 301.75 278.227 299.811 281.04C297.588 283.687 295.263 285.444 291.814 286.112C287.119 286.352 287.119 286.353 284.855 285.677C284.679 286.054 284.679 286.054 284.499 286.438C282.484 290.269 279.109 293.422 276.156 296.55C275.839 296.892 275.52 297.233 275.193 297.585C272.654 300.227 269.847 302.462 266.928 304.663C266.211 305.205 265.5 305.755 264.79 306.306C255.121 313.552 238.404 324.334 225.808 324.097C222.522 323.604 220.23 321.635 218.035 319.299C212.003 313.426 204.564 310.179 196.764 307.388C182.91 302.429 170.586 295.608 160.03 285.242C159.606 284.836 159.183 284.429 158.759 284.023C156.065 281.396 153.622 278.658 151.331 275.674C151.024 275.279 151.024 275.278 150.71 274.875C144.462 266.783 139.522 257.911 136.109 248.273C135.956 247.85 135.956 247.849 135.8 247.417C134.369 243.433 134.369 243.433 134.369 241.749H142.198C142.377 242.296 142.557 242.844 142.741 243.408ZM289.872 266.442C286.091 266.442 283.026 269.508 283.026 273.289C283.026 277.071 286.091 280.136 289.872 280.136C293.654 280.136 296.72 277.071 296.72 273.289C296.72 269.508 293.654 266.442 289.872 266.442Z" fill="white"/>
<defs>
<linearGradient id="paint0_linear_223_1019" x1="74.1939" y1="15.1835" x2="269.393" y2="462.923" gradientUnits="userSpaceOnUse">
<stop stop-color="#35D1C3"/>
<stop offset="1" stop-color="#0F83B6"/>
</linearGradient>
</defs>
</svg>
